<svg width="22.000000" height="21.000000" viewBox="0 0 22 21" fill="none" xmlns="http://www.w3.org/2000/svg" xmlns:xlink="http://www.w3.org/1999/xlink">
	<desc>
			Created with Pixso.
	</desc>
	<defs/>
	<path id="Shape" d="M10.5 19.87L8.98 18.47C3.62 13.51 0.08 10.23 0.08 6.22C0.08 2.94 2.6 0.37 5.81 0.37C7.62 0.37 9.36 1.23 10.5 2.59C11.63 1.23 13.37 0.37 15.18 0.37C18.39 0.37 20.91 2.94 20.91 6.22C20.91 10.23 17.37 13.51 12.01 18.48L10.5 19.87Z" fill="#0E3FF2" fill-opacity="0" fill-rule="nonzero"/>
	<path id="Shape" d="M8.98 18.47C3.62 13.51 0.08 10.23 0.08 6.22C0.08 2.94 2.6 0.37 5.81 0.37C7.62 0.37 9.36 1.23 10.5 2.59C11.63 1.23 13.37 0.37 15.18 0.37C18.39 0.37 20.91 2.94 20.91 6.22C20.91 10.23 17.37 13.51 12.01 18.48L10.5 19.87L8.98 18.47Z" stroke="#000000" stroke-opacity="1.000000" stroke-width="1.000000"/>
</svg>
